<?xml version="1.0" encoding="UTF-8"?>
<!DOCTYPE svg PUBLIC "-//W3C//DTD SVG 1.1//EN" "http://www.w3.org/Graphics/SVG/1.1/DTD/svg11.dtd">
<!-- Creator: CorelDRAW 2018 (64-Bit) -->
<svg xmlns="http://www.w3.org/2000/svg" xml:space="preserve" width="8500px" height="3000px" version="1.1" style="shape-rendering:geometricPrecision; text-rendering:geometricPrecision; image-rendering:optimizeQuality; fill-rule:evenodd; clip-rule:evenodd"
viewBox="0 0 8500 3000"
 xmlns:xlink="http://www.w3.org/1999/xlink">
 <defs>
  <style type="text/css">
   <![CDATA[
    .fil0 {fill:none}
    .fil2 {fill:#001F7E}
    .fil1 {fill:#001F7E;fill-rule:nonzero}
   ]]>
  </style>
 </defs>
 <g id="Layer_x0020_1">
  <metadata id="CorelCorpID_0Corel-Layer"/>
  <rect class="fil0" width="8500" height="3000"/>
  <g id="_2078612025568">
   <path class="fil1" d="M2569.805 1133.633c-153.772,0 -260.07,80.498 -260.07,209.673 0,266.261 421.065,136.398 421.065,313.734 0,71.21 -65.017,117.479 -158.931,117.479 -107.33,0 -169.252,-59.686 -170.284,-141.215l-112.49 0c4.128,139.151 109.394,233.065 277.614,233.065 164.091,0 278.646,-81.53 278.646,-213.457 0,-273.486 -421.065,-138.291 -421.065,-315.799 0,-69.317 58.825,-111.63 142.419,-111.63 89.785,0 147.579,49.537 150.675,132.271l109.394 0c-3.096,-137.431 -108.362,-224.121 -256.973,-224.121z"/>
   <polygon id="1" class="fil1" points="3161.696,1349.326 3047.142,1349.326 3047.142,1218.259 2940.844,1218.259 2940.844,1349.326 2846.93,1349.326 2846.93,1438.08 2940.844,1438.08 2940.844,1857.08 3047.142,1857.08 3047.142,1438.08 3161.696,1438.08 "/>
   <path id="2" class="fil1" d="M3418.181 1340.037c-156.868,0 -269.358,110.427 -269.358,263.166 0,152.739 104.234,263.166 246.653,263.166 77.402,0 145.515,-30.961 186.796,-79.466l0 70.177 105.266 0 0 -253.877c0,-152.739 -112.49,-263.166 -269.357,-263.166zm1.032 434.482c-93.914,0 -162.028,-71.21 -162.028,-171.316 0,-99.074 68.114,-171.316 162.028,-171.316 94.946,0 163.059,72.242 163.059,171.316 0,100.106 -68.113,171.316 -163.059,171.316z"/>
   <path id="3" class="fil1" d="M4209.252 1223.419c11.352,0 25.801,2.064 39.217,7.224l0 -92.882c-13.416,-3.096 -28.897,-4.128 -40.249,-4.128 -97.01,0 -165.123,60.889 -165.123,147.579l0 68.114 -163.06 0 0 -68.114c0,-35.088 25.801,-57.793 60.889,-57.793 11.353,0 25.801,2.064 39.217,7.224l0 -92.882c-13.416,-3.096 -28.896,-4.128 -40.249,-4.128 -97.009,0 -165.123,60.889 -165.123,147.579l0 68.114 -73.273 0 0 88.754 73.273 0 0 419 105.266 0 0 -419 163.06 0 0 419 105.266 0 0 -419 100.106 0 0 -88.754 -100.106 0 0 -68.114c0,-35.088 25.8,-57.793 60.889,-57.793z"/>
   <path class="fil1" d="M4982.28 1133.633c-94.946,0 -172.348,48.505 -210.532,126.939 -38.185,-78.434 -115.587,-126.939 -210.533,-126.939 -136.227,0 -238.397,98.042 -238.397,243.557l0 479.89 112.491 0 0 -471.634c0,-89.785 54.697,-148.611 139.322,-148.611 84.626,0 140.355,58.826 140.355,148.611l0 471.634 112.491 0 0 -471.634c0,-89.785 55.729,-148.611 140.354,-148.611 84.626,0 139.324,58.826 139.324,148.611l0 471.634 112.49 0 0 -479.89c0,-143.451 -101.138,-243.557 -237.365,-243.557z"/>
   <path id="1" class="fil1" d="M5538.05 1340.037c-156.867,0 -271.421,110.427 -271.421,263.166 0,152.739 114.554,263.166 271.421,263.166 156.868,0 270.39,-110.427 270.39,-263.166 0,-152.739 -113.522,-263.166 -270.39,-263.166zm-1.031 91.85c94.946,0 163.059,72.242 163.059,171.316 0,100.106 -68.113,171.316 -163.059,171.316 -93.914,0 -162.028,-71.21 -162.028,-171.316 0,-99.074 68.114,-171.316 162.028,-171.316z"/>
   <path id="2" class="fil1" d="M5846.136 1857.08l106.299 0 0 -297.222c0,-79.465 49.537,-132.099 125.906,-132.099 76.37,0 125.907,52.634 125.907,132.099l0 297.222 106.298 0 0 -297.222c0,-131.067 -94.946,-219.821 -233.237,-219.821 -137.259,0 -231.173,88.754 -231.173,219.821l0 297.222z"/>
   <path id="3" class="fil1" d="M6497.885 1212.067c0,-37.153 -27.865,-61.921 -67.081,-61.921 -40.249,0 -67.082,24.768 -67.082,61.921 0,36.12 26.833,61.921 67.082,61.921 39.216,0 67.081,-25.801 67.081,-61.921zm-119.715 137.259l0 507.754 105.267 0 0 -507.754 -105.267 0z"/>
   <polygon id="4" class="fil1" points="6825.579,1349.326 6711.024,1349.326 6711.024,1218.259 6604.726,1218.259 6604.726,1349.326 6510.812,1349.326 6510.812,1438.08 6604.726,1438.08 6604.726,1857.08 6711.024,1857.08 6711.024,1438.08 6825.579,1438.08 "/>
   <path id="5" class="fil1" d="M7084.127 1340.037c-156.867,0 -271.421,110.427 -271.421,263.166 0,152.739 114.554,263.166 271.421,263.166 156.867,0 270.39,-110.427 270.39,-263.166 0,-152.739 -113.523,-263.166 -270.39,-263.166zm-1.032 91.85c94.946,0 163.06,72.242 163.06,171.316 0,100.106 -68.114,171.316 -163.06,171.316 -93.914,0 -162.027,-71.21 -162.027,-171.316 0,-99.074 68.113,-171.316 162.027,-171.316z"/>
   <path id="6" class="fil1" d="M7498.511 1857.08l0 -302.382c0,-76.37 46.441,-116.618 124.875,-116.618l0 -88.754c-146.547,0 -231.173,72.241 -231.173,196.084l0 311.67 106.298 0z"/>
   <path class="fil2" d="M1843.357 981.565l0 0c220.398,220.398 220.398,581.047 0,801.444l-400.722 400.723 -400.722 -400.723c-220.398,-220.397 -220.398,-581.046 0,-801.444l0 0c220.396,-220.398 581.047,-220.398 801.444,0zm-95.619 95.616l0.002 0.002c167.807,167.808 167.807,442.4 0,610.207l-305.105 305.105 -305.105 -305.105c-167.808,-167.807 -167.808,-442.399 0,-610.207l0.001 -0.002c167.808,-167.807 442.399,-167.807 610.207,0z"/>
   <path class="fil2" d="M1087.374 1828.472l177.63 -177.63c97.696,-97.698 257.564,-97.699 355.261,0l177.631 177.63 -355.261 355.261 -355.261 -355.261zm275.169 83.932l36.559 -241.973c8.594,-56.874 78.558,-56.048 87.052,-0.095l36.572 242.068 -80.091 80.091 -80.092 -80.091z"/>
   <circle class="fil2" cx="1442.635" cy="1382.287" r="220.573"/>
  </g>
 </g>
</svg>
